HIERARCHY
ROOT hip
{
  OFFSET 0 0 0
  CHANNELS 6 Xposition Yposition Zposition Zrotation Yrotation Xrotation
  JOINT abdomen
  {
    OFFSET 0 20.6881 -0.73152
    CHANNELS 3 Zrotation Xrotation Yrotation
    JOINT chest
    {
      OFFSET 0 11.7043 -0.48768
      CHANNELS 3 Zrotation Xrotation Yrotation
      JOINT neck
      {
        OFFSET 0 22.1894 -2.19456
        CHANNELS 3 Zrotation Xrotation Yrotation
        JOINT head
        {
          OFFSET -0.24384 7.07133 1.2192
          CHANNELS 3 Zrotation Xrotation Yrotation
          JOINT leftEye
          {
            OFFSET 4.14528 8.04674 8.04672
            CHANNELS 3 Zrotation Xrotation Yrotation
            End Site
            {
              OFFSET 1 0 0
            }
          }
          JOINT rightEye
          {
            OFFSET -3.6576 8.04674 8.04672
            CHANNELS 3 Zrotation Xrotation Yrotation
            End Site
            {
              OFFSET 1 0 0
            }
          }
        }
      }
      JOINT rCollar
      {
        OFFSET -2.68224 19.2634 -4.8768
        CHANNELS 3 Zrotation Xrotation Yrotation
        JOINT rShldr
        {
          OFFSET -8.77824 -1.95073 1.46304
          CHANNELS 3 Zrotation Xrotation Yrotation
          JOINT rForeArm
          {
            OFFSET -28.1742 -1.7115 0.48768
            CHANNELS 3 Zrotation Xrotation Yrotation
            JOINT rHand
            {
              OFFSET -22.5879 0.773209 7.07136
              CHANNELS 3 Zrotation Xrotation Yrotation
              JOINT rThumb1
              {
                OFFSET -1.2192 -0.487915 3.41376
                CHANNELS 3 Zrotation Xrotation Yrotation
                JOINT rThumb2
                {
                  OFFSET -3.37035 -0.52449 3.41376
                  CHANNELS 3 Zrotation Xrotation Yrotation
                  End Site
                  {
                    OFFSET -1.78271 -1.18214 1.43049
                  }
                }
              }
              JOINT rIndex1
              {
                OFFSET -7.75947 0.938293 5.60832
                CHANNELS 3 Zrotation Xrotation Yrotation
                JOINT rIndex2
                {
                  OFFSET -2.54057 -0.884171 1.56538
                  CHANNELS 3 Zrotation Xrotation Yrotation
                  End Site
                  {
                    OFFSET -1.62519 -0.234802 1.16502
                  }
                }
              }
              JOINT rMid1
              {
                OFFSET -8.24714 1.18213 3.41376
                CHANNELS 3 Zrotation Xrotation Yrotation
                JOINT rMid2
                {
                  OFFSET -3.10165 -0.590103 1.0647
                  CHANNELS 3 Zrotation Xrotation Yrotation
                  End Site
                  {
                    OFFSET -2.48547 -0.328903 0.83742
                  }
                }
              }
              JOINT rRing1
              {
                OFFSET -8.82822 0.546677 1.51678
                CHANNELS 3 Zrotation Xrotation Yrotation
                JOINT rRing2
                {
                  OFFSET -2.60934 -0.819778 -0.0198488
                  CHANNELS 3 Zrotation Xrotation Yrotation
                  End Site
                  {
                    OFFSET -2.33842 -0.294052 0.168128
                  }
                }
              }
              JOINT rPinky1
              {
                OFFSET -8.27202 -0.0477905 -0.4584
                CHANNELS 3 Zrotation Xrotation Yrotation
                JOINT rPinky2
                {
                  OFFSET -1.82734 -0.647385 -0.700984
                  CHANNELS 3 Zrotation Xrotation Yrotation
                  End Site
                  {
                    OFFSET -1.69225 -0.51767 -0.607171
                  }
                }
              }
            }
          }
        }
      }
      JOINT lCollar
      {
        OFFSET 2.68224 19.2634 -4.8768
        CHANNELS 3 Zrotation Xrotation Yrotation
        JOINT lShldr
        {
          OFFSET 8.77824 -1.95073 1.46304
          CHANNELS 3 Zrotation Xrotation Yrotation
          JOINT lForeArm
          {
            OFFSET 28.1742 -1.7115 0.48768
            CHANNELS 3 Zrotation Xrotation Yrotation
            JOINT lHand
            {
              OFFSET 22.5879 0.773209 7.07136
              CHANNELS 3 Zrotation Xrotation Yrotation
              JOINT lThumb1
              {
                OFFSET 1.2192 -0.487915 3.41376
                CHANNELS 3 Zrotation Xrotation Yrotation
                JOINT lThumb2
                {
                  OFFSET 3.37035 -0.52449 3.41376
                  CHANNELS 3 Zrotation Xrotation Yrotation
                  End Site
                  {
                    OFFSET 1.78271 -1.18214 1.43049
                  }
                }
              }
              JOINT lIndex1
              {
                OFFSET 7.75947 0.938293 5.60832
                CHANNELS 3 Zrotation Xrotation Yrotation
                JOINT lIndex2
                {
                  OFFSET 2.54057 -0.884171 1.56538
                  CHANNELS 3 Zrotation Xrotation Yrotation
                  End Site
                  {
                    OFFSET 1.62519 -0.234802 1.16502
                  }
                }
              }
              JOINT lMid1
              {
                OFFSET 8.24714 1.18213 3.41376
                CHANNELS 3 Zrotation Xrotation Yrotation
                JOINT lMid2
                {
                  OFFSET 3.10165 -0.590103 1.0647
                  CHANNELS 3 Zrotation Xrotation Yrotation
                  End Site
                  {
                    OFFSET 2.48547 -0.328903 0.83742
                  }
                }
              }
              JOINT lRing1
              {
                OFFSET 8.82822 0.546677 1.51678
                CHANNELS 3 Zrotation Xrotation Yrotation
                JOINT lRing2
                {
                  OFFSET 2.60934 -0.819778 -0.0198488
                  CHANNELS 3 Zrotation Xrotation Yrotation
                  End Site
                  {
                    OFFSET 2.33842 -0.294052 0.168128
                  }
                }
              }
              JOINT lPinky1
              {
                OFFSET 8.27202 -0.0477905 -0.4584
                CHANNELS 3 Zrotation Xrotation Yrotation
                JOINT lPinky2
                {
                  OFFSET 1.82734 -0.647385 -0.700984
                  CHANNELS 3 Zrotation Xrotation Yrotation
                  End Site
                  {
                    OFFSET 1.69225 -0.51767 -0.607171
                  }
                }
              }
            }
          }
        }
      }
    }
  }
  JOINT rButtock
  {
    OFFSET -8.77824 4.35084 1.2192
    CHANNELS 3 Zrotation Xrotation Yrotation
    JOINT rThigh
    {
      OFFSET 0 -1.70687 -2.19456
      CHANNELS 3 Zrotation Xrotation Yrotation
      JOINT rShin
      {
        OFFSET 0 -36.8199 0.73152
        CHANNELS 3 Zrotation Xrotation Yrotation
        JOINT rFoot
        {
          OFFSET 0.73152 -45.1104 -5.12064
          CHANNELS 3 Zrotation Xrotation Yrotation
          End Site
          {
            OFFSET -1.1221 -3.69964 12.103
          }
        }
      }
    }
  }
  JOINT lButtock
  {
    OFFSET 8.77824 4.35084 1.2192
    CHANNELS 3 Zrotation Xrotation Yrotation
    JOINT lThigh
    {
      OFFSET 0 -1.70687 -2.19456
      CHANNELS 3 Zrotation Xrotation Yrotation
      JOINT lShin
      {
        OFFSET 0 -36.8199 0.73152
        CHANNELS 3 Zrotation Xrotation Yrotation
        JOINT lFoot
        {
          OFFSET -0.73152 -45.1104 -5.12064
          CHANNELS 3 Zrotation Xrotation Yrotation
          End Site
          {
            OFFSET 1.1221 -3.69964 12.103
          }
        }
      }
    }
  }
}
MOTION
Frames:	4
Frame Time:	0.00833333
10.714 77.4731 57.9106 -1.9552 -7.3172 2.9408 3.10311 20.3255 -4.64467 1.49157 -6.99197 -0.831335 -1.20006 13.0878 2.57355 4.0885 -49.2963 7.37121 -0.0 0.0 0.0 -0.0 0.0 0.0 2.69039e-14 1.35505e-14 -2.16097e-13 82.1506 33.9174 -10.4976 -28.2307 -32.2289 70.8176 -0.0343397 -5.39983 -0.761007 -4.36899e-12 -8.36309e-10 2.37281e-09 -1.66726e-11 -1.42385e-09 4.10156e-09 -4.36147e-12 -8.36306e-10 2.37278e-09 7.73091 5.47488 0.417314 -4.37081e-12 -8.36305e-10 2.37281e-09 2.90554 0.965183 0.102902 -4.36497e-12 -8.36302e-10 2.3728e-09 10.2786 0.731801 0.0259123 -4.37053e-12 -8.36306e-10 2.37281e-09 2.22167 -0.733487 -0.20892 2.68939e-14 1.35587e-14 -2.16271e-13 -83.3579 47.4269 7.8951 27.3968 -42.8444 -89.1959 1.11525 -28.5356 4.38295 -5.02592e-10 -7.06103e-09 -1.49384e-09 -8.34664e-10 -1.22261e-08 -2.59556e-09 -5.02598e-10 -7.06104e-09 -1.49382e-09 -7.73091 5.47488 -0.417314 -5.02591e-10 -7.06105e-09 -1.49384e-09 -2.90554 0.965183 -0.102902 -5.02607e-10 -7.06105e-09 -1.49383e-09 -10.2786 0.731801 -0.0259123 -5.02589e-10 -7.06103e-09 -1.49384e-09 -2.22167 -0.733487 0.20892 -2.03217e-16 0.0 -3.88251e-19 12.0024 -28.5081 8.39992 -0.475845 41.5141 0.0181604 -1.80951 -7.06644 -6.98363 2.03217e-16 0.0 3.88251e-19 9.60132 -12.0782 10.5771 172.24 80.9369 -172.807 2.46193 22.0498 -7.31291
10.4305 77.1479 60.3638 -3.0726 -7.0248 3.2641 3.97 20.4736 -4.82533 1.36856 -7.08899 -0.856654 -1.13503 13.6392 2.54235 4.11056 -50.5224 7.36936 -0.0 0.0 0.0 -0.0 0.0 0.0 1.90317e-14 -1.29416e-15 -1.74359e-13 80.52 35.1762 -7.29222 -28.2917 -32.8272 71.7985 -0.0453398 -6.22532 -0.878132 4.62131e-11 -5.9237e-10 1.79743e-09 7.25687e-11 -1.00117e-09 3.10748e-09 4.6222e-11 -5.92369e-10 1.79741e-09 7.73091 5.47488 0.417314 4.62109e-11 -5.92367e-10 1.79742e-09 2.90554 0.965183 0.102902 4.62169e-11 -5.92363e-10 1.79742e-09 10.2786 0.731801 0.0259123 4.62093e-11 -5.92366e-10 1.79743e-09 2.22167 -0.733487 -0.20892 1.91362e-14 -1.28919e-15 -1.7448e-13 -85.3915 46.4392 10.394 27.4658 -42.6186 -88.7611 1.14276 -28.8431 4.43952 -2.77326e-10 -4.61275e-09 -1.02804e-09 -4.55695e-10 -7.97869e-09 -1.78499e-09 -2.77332e-10 -4.61276e-09 -1.02803e-09 -7.73091 5.47488 -0.417314 -2.77324e-10 -4.61276e-09 -1.02804e-09 -2.90554 0.965183 -0.102902 -2.77337e-10 -4.61276e-09 -1.02804e-09 -10.2786 0.731801 -0.0259123 -2.77321e-10 -4.61275e-09 -1.02805e-09 -2.22167 -0.733487 0.20892 -2.03217e-16 0.0 -3.88251e-19 12.2965 -27.2359 7.62076 -0.476675 42.2461 0.122233 -2.11398 -8.42717 -7.56133 2.03217e-16 0.0 3.88251e-19 11.5146 -16.1248 10.6976 174.034 77.6459 -174.634 2.65728 21.7998 -8.53016
10.4373 76.9032 62.8097 -2.9256 -6.2782 3.3864 4.8064 20.5144 -4.98566 1.25758 -7.17799 -0.878287 -1.05447 14.1422 2.46231 3.99425 -51.5994 7.19132 -0.0 0.0 0.0 -0.0 0.0 0.0 7.08699e-15 -1.94684e-14 -1.20943e-13 78.7242 36.333 -4.07635 -28.3445 -33.4581 72.8322 -0.0599818 -7.06194 -0.997412 1.0819e-10 -4.47003e-10 1.05537e-09 1.82187e-10 -7.52164e-10 1.82537e-09 1.08199e-10 -4.47005e-10 1.05535e-09 7.73091 5.47488 0.417314 1.08187e-10 -4.47001e-10 1.05536e-09 2.90554 0.965183 0.102902 1.08193e-10 -4.46997e-10 1.05536e-09 10.2786 0.731801 0.0259123 1.08184e-10 -4.46998e-10 1.05536e-09 2.22167 -0.733487 -0.20892 7.30051e-15 -1.94668e-14 -1.21012e-13 -87.342 45.4691 12.817 27.5249 -42.4205 -88.3794 1.17626 -29.2164 4.50842 -6.0811e-12 -1.57464e-09 -4.37885e-10 -1.64493e-13 -2.71193e-09 -7.58229e-10 -6.08703e-12 -1.57464e-09 -4.37869e-10 -7.73091 5.47488 -0.417314 -6.07874e-12 -1.57464e-09 -4.37886e-10 -2.90554 0.965183 -0.102902 -6.0885e-12 -1.57465e-09 -4.3789e-10 -10.2786 0.731801 -0.0259123 -6.07452e-12 -1.57464e-09 -4.37906e-10 -2.22167 -0.733487 0.20892 -2.03217e-16 0.0 -3.88251e-19 12.4619 -25.7714 6.67305 -0.467682 42.6192 0.218737 -2.36423 -9.6823 -7.88362 2.03217e-16 0.0 3.88251e-19 13.2069 -20.2833 10.7207 174.945 74.8316 -175.574 2.83421 21.5024 -9.78655
10.5008 76.687 65.2602 -2.6448 -5.3224 3.4444 5.47538 20.513 -4.86463 1.17964 -7.26333 -0.826457 -0.929302 14.3825 2.32655 3.63415 -52.1168 6.74797 -0.0 0.0 0.0 -0.0 0.0 0.0 -2.12195e-15 -3.18044e-14 -8.4235e-14 76.8833 37.2733 -1.05049 -28.3922 -34.1346 73.9204 -0.0721028 -7.63868 -1.08002 1.53364e-10 -6.90318e-10 4.83766e-10 2.62373e-10 -1.17996e-09 8.37767e-10 1.53374e-10 -6.90321e-10 4.8375e-10 7.73091 5.47488 0.417314 1.53361e-10 -6.90317e-10 4.83756e-10 2.90554 0.965183 0.102902 1.53367e-10 -6.90313e-10 4.83756e-10 10.2786 0.731801 0.0259123 1.53357e-10 -6.90313e-10 4.83759e-10 2.22167 -0.733487 -0.20892 -1.85388e-15 -3.18044e-14 -8.42847e-14 -89.0564 44.6235 14.9937 27.5743 -42.2443 -88.0467 1.22005 -29.7035 4.59859 2.35981e-10 8.32528e-10 2.01043e-11 4.07713e-10 1.4547e-09 3.94476e-11 2.35976e-10 8.32525e-10 2.01202e-11 -7.73091 5.47488 -0.417314 2.35984e-10 8.32534e-10 2.01043e-11 -2.90554 0.965183 -0.102902 2.35976e-10 8.3252e-10 2.00971e-11 -10.2786 0.731801 -0.0259123 2.35989e-10 8.32522e-10 2.00788e-11 -2.22167 -0.733487 0.20892 -2.03217e-16 0.0 -3.88251e-19 12.7211 -24.154 6.02081 -0.456729 42.7633 0.304838 -2.57401 -10.8002 -8.09668 2.03217e-16 0.0 3.88251e-19 14.7561 -24.2417 10.9074 175.444 72.6207 -176.095 2.95964 21.0004 -11.0452
